<svg xmlns="http://www.w3.org/2000/svg" width="50.882" height="61.023" viewBox="0 0 50.882 61.023"><g transform="translate(-72.697 -70.934)"><path d="M85.184,107.236a21.895,21.895,0,1,1,35.752-3.99,6.256,6.256,0,0,0-.892-.43,6.13,6.13,0,0,0-.827-.256,20.054,20.054,0,1,0-32.3,3.866c-.256.094-.508.2-.755.314C85.854,106.881,85.524,107.047,85.184,107.236Z" fill="#636569"/><path d="M82.878,131.957a2.062,2.062,0,0,1-1.752-1.011l-8.172-14.378a2.03,2.03,0,0,1,.761-2.746l4.355-2.476a2.09,2.09,0,0,1,2.26.184,1.893,1.893,0,0,1,.5.556l.827,1.454.46-.4c.528-.456,1.35-1.143,2.27-1.823.6-.444,1.2-.845,1.764-1.193.208-.125.416-.246.622-.358a8.4,8.4,0,0,1,1.339-.6,3.951,3.951,0,0,1,.584-.153,11.149,11.149,0,0,1,1.145-.139c.178-.008.368-.013.559-.013a12.6,12.6,0,0,1,4.486.824,18.516,18.516,0,0,0,6.02,1.083c.052,0,.132.007.212.007a3.5,3.5,0,0,0,.959-.135,22.114,22.114,0,0,1,2.74-.218,5.85,5.85,0,0,1,3.723,1.01l.137.106a3.318,3.318,0,0,1,.473.511l.383.512.4-.5c.306-.377.6-.752.878-1.111l.4-.518c1.6-2.066,3.525-4.248,5.737-4.764a3.857,3.857,0,0,1,1.618-.04,4.181,4.181,0,0,1,1.2.428,1.7,1.7,0,0,1,.461.358,2.378,2.378,0,0,1,.322,2.273l-.074.265c-1.417,4.873-11.026,16.791-16.392,16.791h-15.5l.416.744A2.019,2.019,0,0,1,89.187,128a2.089,2.089,0,0,1-.957,1.216l-4.355,2.474A2.015,2.015,0,0,1,82.878,131.957Zm-8.419-16.45,8.352,14.68,4.667-2.658-8.346-14.683Zm14.464-4.667a4,4,0,0,0-.921.342,15.186,15.186,0,0,0-2.009,1.241,39.283,39.283,0,0,0-3.112,2.479l-.305.268,4.965,8.741h16.54c1.947,0,5.349-2.514,8.877-6.561.731-.839,1.434-1.705,2.087-2.574a29.532,29.532,0,0,0,3.259-5.239,6.5,6.5,0,0,0,.5-1.455l.1-.46-.475-.133-.109-.023a2.369,2.369,0,0,0-.475-.051c-1.4,0-2.986,1.284-5.3,4.294l-.248.319c-.34.437-.7.895-1.09,1.362-.369.448-.754.893-1.171,1.331l-.139.144v.041l-.21.252a9.362,9.362,0,0,1-2,1.707,9.738,9.738,0,0,1-2.754,1.25,8.092,8.092,0,0,1-2.037.324c-.8.055-1.8.082-3.013.082-1.647,0-3.265-.05-4.051-.08l.043-1.853,6.933.022c.347-.026.615-.054.836-.089.237-.042.382-.069.544-.11.188-.047.372-.105.554-.169a8.208,8.208,0,0,0,2.124-1.139,12.026,12.026,0,0,0,.968-.785l.209-.187-.053-.277a1.669,1.669,0,0,0-.531-.934,1.974,1.974,0,0,0-.263-.191,4.481,4.481,0,0,0-2.324-.473,20.667,20.667,0,0,0-2.639.221c-.315.04-.592.06-.833.078s-.429.032-.6.056a20.274,20.274,0,0,1-6.428-1.161,16.264,16.264,0,0,0-2.691-.695,8.355,8.355,0,0,0-2.692.07l.047,1Z" fill="#636569"/><path d="M83.812,127.489a.93.93,0,0,1-.794-.447l-1.394-2.347a.921.921,0,0,1,.274-1.217.9.9,0,0,1,.518-.161.918.918,0,0,1,.757.4L84.6,126.1a.924.924,0,0,1-.321,1.258.9.9,0,0,1-.462.128Z" fill="#636569"/><path d="M100.955,103.873l-.022-1.63-.515.021c-.112,0-.226.007-.338.007a8.126,8.126,0,0,1-4.474-1.337A4.1,4.1,0,0,1,94.12,97.9h2.165a2.743,2.743,0,0,0,1.172,1.756,5.551,5.551,0,0,0,2.937.843h.5l.066-.5V92.763l-2.82-1.039a6.759,6.759,0,0,1-2.9-1.883,3.886,3.886,0,0,1-.946-2.578A4.128,4.128,0,0,1,95.862,83.9a8.011,8.011,0,0,1,4.608-1.548l.49-.009V80.706h1.481v1.622l.477.023a8.224,8.224,0,0,1,4.253,1.426,4.28,4.28,0,0,1,1.4,2.55h-2.087a2.8,2.8,0,0,0-.967-1.534,5.087,5.087,0,0,0-2.541-.876l-.532-.033v7.087l2.481.921a7.791,7.791,0,0,1,3.331,2.029,4.338,4.338,0,0,1,.889,2.831,4.693,4.693,0,0,1-1.606,3.7,7.909,7.909,0,0,1-4.62,1.778l-.474.024v1.623Zm1.484-3.352.559-.065a6.006,6.006,0,0,0,2.836-1.114,2.755,2.755,0,0,0,1.126-2.2,2.918,2.918,0,0,0-1.048-2.294,6.779,6.779,0,0,0-2.878-1.308l-.595-.114Zm-2-16.643a5.41,5.41,0,0,0-2.776.909,2.454,2.454,0,0,0-1.186,2.022A2.753,2.753,0,0,0,97.442,89a7.7,7.7,0,0,0,2.91,1.311l.606.133V83.856Z" fill="#636569"/></g></svg>