<svg xmlns="http://www.w3.org/2000/svg" width="57.039" height="57.057" viewBox="0 0 57.039 57.057"><g transform="translate(-71.033 -71.335)"><path d="M127.157,128.392c.028-.015.009-.017-.023-.017H72a.766.766,0,0,1-.126-.01.378.378,0,0,0-.128-.054,1.066,1.066,0,0,1-.2-.075,1.114,1.114,0,0,1-.137-.095.982.982,0,0,1-.14-.132.885.885,0,0,1-.094-.145.948.948,0,0,1-.086-.177,1.077,1.077,0,0,1-.032-.177c-.005-.042-.011-.08-.019-.118s.008-.059.01-.088a1.03,1.03,0,0,0,0-.2c1.011-5.8,3.683-9.3,7.145-9.3h1.29c3.236,0,5.909-.281,8.383-3.824a.985.985,0,0,1,.809-.422.975.975,0,0,1,.562.176.988.988,0,0,1,.245,1.372c-3.014,4.306-6.541,4.667-9.895,4.667H78.188c-1.948,0-3.659,2.022-4.692,5.549a.848.848,0,0,0,.816,1.093H124.79a.845.845,0,0,0,.245-.036.848.848,0,0,0,.573-1.056c-1.031-3.526-2.74-5.549-4.69-5.549h-1.4c-3.213,0-6.6-.361-9.611-4.668a.985.985,0,0,1,1.618-1.125c2.666,3.823,5.417,3.823,8.6,3.823h.794c3.463,0,6.134,3.5,7.144,9.375a.4.4,0,0,0,0,.141.8.8,0,0,0,.012.126c0-.011-.005-.016-.007-.016s-.014.042-.019.083a.986.986,0,0,1-.037.193,1.2,1.2,0,0,1-.183.318.836.836,0,0,1-.124.116.925.925,0,0,1-.158.108.994.994,0,0,1-.173.064A1.223,1.223,0,0,0,127.157,128.392Z" fill="#636569"/><path d="M99.553,113.681c-4.221,0-8.844-4.393-11.241-10.68a.843.843,0,0,0-.152-.251l-.075-.085H83.023a4.669,4.669,0,0,1-4.656-4.651V94.343a4.65,4.65,0,0,1,3.159-4.383.838.838,0,0,0,.487-.425l.027-.053v-.658c0-5.732,1.489-10.126,4.426-13.062s7.341-4.427,13.086-4.427,10.148,1.489,13.088,4.427,4.426,7.336,4.426,13.081v.641l.027.053a.835.835,0,0,0,.487.425,4.651,4.651,0,0,1,3.16,4.376v3.671a4.672,4.672,0,0,1-3.1,4.364.851.851,0,0,0-.568.8v.339a4.669,4.669,0,0,1-4.657,4.656h-9.183a.988.988,0,0,1-.984-.983v-3.672a.985.985,0,0,1,1.969,0v1.835a.851.851,0,0,0,.849.85h7.347a2.7,2.7,0,0,0,2.691-2.689.851.851,0,0,0-.85-.85h-4.084a.916.916,0,0,1-.237-.048.979.979,0,0,1-.626-1.24,24.03,24.03,0,0,0,1.213-7.559,25.208,25.208,0,0,0-.176-3.038.985.985,0,0,1,.857-1.1l.124-.01,2.167.013h.767a.85.85,0,0,0,.849-.85c0-5.3-1.255-9.125-3.837-11.706s-6.414-3.834-11.71-3.834-9.124,1.254-11.708,3.834-3.838,6.408-3.838,11.706a.851.851,0,0,0,.849.85h1.393A.852.852,0,0,0,87.09,89c1.35-6.661,5.777-10.33,12.465-10.33,4.309,0,7.756,1.529,9.967,4.422a.983.983,0,0,1-1.561,1.2c-1.857-2.422-4.686-3.65-8.406-3.65-5,0-10.951,2.286-10.951,13.181,0,10.76,6.591,17.9,10.951,17.9a5.083,5.083,0,0,0,1.558-.259,1.038,1.038,0,0,1,.3-.045.982.982,0,0,1,.3,1.917A7.008,7.008,0,0,1,99.553,113.681ZM83.018,91.657a2.694,2.694,0,0,0-2.688,2.687v3.673a2.7,2.7,0,0,0,2.689,2.688h3.438a.894.894,0,0,0,.2-.022.85.85,0,0,0,.635-1.021,26.244,26.244,0,0,1-.664-5.843c0-.361.016-.7.032-1.065l.01-.209a.859.859,0,0,0-.849-.891h0Zm30.224,0a.85.85,0,0,0-.808.889c.018.415.037.843.037,1.275a26.336,26.336,0,0,1-.668,5.844.807.807,0,0,0-.022.2.85.85,0,0,0,.85.842h3.447a2.7,2.7,0,0,0,2.69-2.688l0-3.675a2.7,2.7,0,0,0-2.69-2.688h-2.833Z" fill="#636569"/></g></svg>