<svg id="icon-wake-upCall" xmlns="http://www.w3.org/2000/svg" width="31.365" height="28" viewBox="0 0 31.365 28">
  <g id="Group_314" data-name="Group 314" transform="translate(25.596 0.002)">
    <path id="Path_460" data-name="Path 460" d="M4498.5,635.521a.752.752,0,0,1-.7-1.019,8.509,8.509,0,0,0,.525-2.9,11.221,11.221,0,0,0-1.875-6.287,8.5,8.5,0,0,0-2.031-2.142.759.759,0,0,1-.246-1.04.745.745,0,0,1,1.029-.244c.035.022.069.045.1.069a10,10,0,0,1,2.392,2.515,12.732,12.732,0,0,1,2.133,7.151,10.008,10.008,0,0,1-.624,3.416A.751.751,0,0,1,4498.5,635.521Z" transform="translate(-4494.061 -621.772)" fill="#666"/>
  </g>
  <g id="Group_315" data-name="Group 315" transform="translate(23.932 3.129)">
    <path id="Path_461" data-name="Path 461" d="M4468.632,684.059a.752.752,0,0,1-.717-.98,6.587,6.587,0,0,0-1.925-6.454.757.757,0,0,1-.249-1.037.748.748,0,0,1,1.03-.248,1.657,1.657,0,0,1,.167.119,8.077,8.077,0,0,1,2.409,8.077A.752.752,0,0,1,4468.632,684.059Z" transform="translate(-4465.63 -675.228)" fill="#666"/>
  </g>
  <g id="Group_316" data-name="Group 316">
    <path id="Path_462" data-name="Path 462" d="M4058,635.5a.752.752,0,0,1-.7-.485,10.023,10.023,0,0,1-.624-3.416,12.727,12.727,0,0,1,2.133-7.151,10.009,10.009,0,0,1,2.393-2.516c.034-.024.067-.047.1-.068a.752.752,0,1,1,.8,1.275,8.52,8.52,0,0,0-2.044,2.151,11.223,11.223,0,0,0-1.875,6.287,8.506,8.506,0,0,0,.526,2.9.752.752,0,0,1-.7,1.019Z" transform="translate(-4056.671 -621.75)" fill="#666"/>
  </g>
  <g id="Group_317" data-name="Group 317" transform="translate(3.422 3.129)">
    <path id="Path_463" data-name="Path 463" d="M4116.163,684.045a.752.752,0,0,1-.716-.523,8.074,8.074,0,0,1,2.409-8.077,1.561,1.561,0,0,1,.165-.118.752.752,0,0,1,.793,1.277,6.582,6.582,0,0,0-1.935,6.461.752.752,0,0,1-.716.98Z" transform="translate(-4115.154 -675.214)" fill="#666"/>
  </g>
  <g id="Group_318" data-name="Group 318" transform="translate(3.814 0.533)">
    <path id="Path_464" data-name="Path 464" d="M4144.857,654.4h-22.245a.751.751,0,0,1-.744-.855,7.4,7.4,0,0,1,1.877-3.92c1.207-1.325,1.233-3.289,1.259-5.188,0-.268.007-.535.014-.8,0-.09,0-.211,0-.359a12.972,12.972,0,0,1,.683-4.784,7.76,7.76,0,0,1,4.83-4.734,3.615,3.615,0,0,1,.929-2.023,3.38,3.38,0,0,1,4.557,0,3.612,3.612,0,0,1,.929,2.024,7.76,7.76,0,0,1,4.83,4.734,12.972,12.972,0,0,1,.683,4.784c0,.147,0,.269,0,.359.007.263.01.529.014.8.026,1.9.052,3.863,1.259,5.188a7.412,7.412,0,0,1,1.877,3.92.752.752,0,0,1-.745.855Zm-21.307-1.5h20.368a6.009,6.009,0,0,0-1.306-2.26h0c-1.591-1.746-1.623-4.1-1.65-6.18,0-.262-.007-.523-.014-.78,0-.105,0-.247,0-.419.042-2.865-.426-6.834-4.943-8.224a.751.751,0,0,1-.53-.736,2.406,2.406,0,0,0-.545-1.515,1.9,1.9,0,0,0-2.4,0,2.408,2.408,0,0,0-.545,1.519.756.756,0,0,1-.53.732c-4.517,1.39-4.984,5.359-4.943,8.224,0,.172,0,.313,0,.419-.007.257-.01.518-.014.78-.028,2.078-.06,4.433-1.65,6.18A6.016,6.016,0,0,0,4123.551,652.9Z" transform="translate(-4121.861 -630.86)" fill="#666"/>
  </g>
  <g id="Group_319" data-name="Group 319" transform="translate(11.492 24.801)">
    <path id="Path_465" data-name="Path 465" d="M4257.246,1048.754a5.072,5.072,0,0,1-4.041-1.988.752.752,0,0,1,1.19-.919,3.6,3.6,0,0,0,5.7,0,.752.752,0,0,1,1.19.919A5.071,5.071,0,0,1,4257.246,1048.754Z" transform="translate(-4253.048 -1045.554)" fill="#666"/>
  </g>
</svg>
